<svg xmlns="http://www.w3.org/2000/svg" width="147.774" height="162.282" viewBox="0 0 147.774 162.282">
  <g id="Group_255" data-name="Group 255" transform="translate(-818 -376)">
    <g id="Group_3" data-name="Group 3" transform="translate(818 376)">
      <path id="Path_1" data-name="Path 1" d="M1386.591,226.2c1.538-1,3.109-2.134,4.731-3.372a111.4,111.4,0,0,0,10.1-8.73L1411.591,204l-10.17-10.123a116.223,116.223,0,0,0-10.1-8.716c-9.651-7.377-17.784-10.806-25.588-10.806-17.87,0-32.409,13.287-32.409,29.63a28.585,28.585,0,0,0,10.992,22.21,34.026,34.026,0,0,1,21.417-7.434c6.488,0,13.214,2.389,20.858,7.434m-37.081-22.21c0-8.145,7.273-14.751,16.224-14.751s23.817,14.751,23.817,14.751-14.866,14.775-23.817,14.775-16.224-6.617-16.224-14.775" transform="translate(-1298.574 -174.357)" fill="#f04e23"/>
      <path id="Path_2" data-name="Path 2" d="M1391.321,218.483c-1.621-1.246-3.191-2.367-4.729-3.389-7.645,5.046-14.37,7.433-20.859,7.433a33.929,33.929,0,0,1-21.417-7.433,28.6,28.6,0,0,0-10.991,22.212c0,16.33,14.539,29.642,32.407,29.642,7.806,0,15.939-3.44,25.588-10.819a113.553,113.553,0,0,0,10.1-8.708l10.171-10.115-10.171-10.1a108.569,108.569,0,0,0-10.1-8.725m-25.588,33.578c-8.949,0-16.223-6.6-16.223-14.755s7.274-14.746,16.223-14.746,23.818,14.746,23.818,14.746-14.867,14.755-23.818,14.755" transform="translate(-1298.573 -163.255)" fill="#f04e23"/>
      <path id="Path_3" data-name="Path 3" d="M1384.238,216.686c-7.644-5.046-14.371-7.434-20.859-7.434a34.026,34.026,0,0,0-21.416,7.434,33.929,33.929,0,0,0,21.416,7.433c6.489,0,13.215-2.387,20.859-7.433" transform="translate(-1296.219 -164.847)" fill="#a70e13"/>
      <path id="Path_4" data-name="Path 4" d="M1306.016,307.447h16.445V302.49h-10.912v-5.518h10.108v-4.995h-10.108V286.43h10.912v-4.967h-16.445Z" transform="translate(-1306.016 -145.167)" fill="#fff"/>
      <path id="Path_5" data-name="Path 5" d="M1330.884,281.463h-5.513v25.984h16.441V302.49h-10.928Z" transform="translate(-1300.741 -145.167)" fill="#fff"/>
      <path id="Path_6" data-name="Path 6" d="M1366.941,281.19a9.453,9.453,0,0,0-6.5,2.521,9.16,9.16,0,0,0-6.481-2.521c-5.087,0-9.242,3.543-9.242,7.886v18.445h5.54V289.076c0-1.592,1.661-2.892,3.7-2.892s3.728,1.3,3.728,2.892v18.445h5.5V289.076c0-1.573,1.728-2.892,3.749-2.892s3.712,1.32,3.712,2.892v18.445h5.52V289.076c0-4.343-4.133-7.886-9.232-7.886" transform="translate(-1295.468 -145.241)" fill="#fff"/>
      <rect id="Rectangle_3" data-name="Rectangle 3" width="5.543" height="25.984" transform="translate(88.888 136.296)" fill="#fff"/>
      <path id="Path_7" data-name="Path 7" d="M1395.9,281.19c-5.1,0-9.244,3.543-9.244,7.886v18.445h5.537V289.076c0-1.592,1.661-2.892,3.707-2.892s3.718,1.3,3.718,2.892v18.445h5.524V289.076c0-4.343-4.157-7.886-9.242-7.886" transform="translate(-1284.038 -145.241)" fill="#fff"/>
      <path id="Path_8" data-name="Path 8" d="M1416.879,281.19c-5.117,0-9.265,3.543-9.265,7.886v18.447h5.542V297.046h7.43v10.477h5.515V289.076c0-4.343-4.141-7.886-9.222-7.886m0,4.993c2.01,0,3.707,1.32,3.707,2.892v2.975h-7.43v-2.975c0-1.573,1.707-2.892,3.723-2.892" transform="translate(-1278.327 -145.241)" fill="#fff"/>
      <path id="Path_9" data-name="Path 9" d="M1348.5,266.208a5.108,5.108,0,0,1,4.689,2.908l-1.851.918a3.293,3.293,0,0,0-2.9-1.734c-1.4,0-2.806.653-2.806,2.007v4.778c0,1.351,1.4,2.012,2.806,2.012a3.225,3.225,0,0,0,2.9-1.723l1.851.867a5.19,5.19,0,0,1-4.747,2.934c-2.423,0-4.871-1.359-4.871-4.09v-4.778c0-2.719,2.448-4.1,4.929-4.1" transform="translate(-1295.782 -149.324)" fill="#fff"/>
      <path id="Path_10" data-name="Path 10" d="M1353.524,266.3a1.21,1.21,0,0,1,1.255,1.255,1.228,1.228,0,0,1-1.255,1.26,1.241,1.241,0,0,1-1.248-1.26,1.222,1.222,0,0,1,1.248-1.255m-.957,12.729h1.976V269.7h-1.976Z" transform="translate(-1293.409 -149.3)" fill="#fff"/>
      <path id="Path_11" data-name="Path 11" d="M1369.233,268.988v9.3c0,4.137-5.676,4.295-7.344,1.69l1.185-1.13c1.116,1.475,4.48,1.638,4.281-.733-2.3.961-5.556-.165-5.556-2.891v-6.239h1.983v6.252c.086,1.526,2.493,1.689,3.493.975v-7.227Z" transform="translate(-1290.813 -148.567)" fill="#fff"/>
      <path id="Path_12" data-name="Path 12" d="M1359.533,275.838V271.69h1.784v-1.974h-1.784v-3.4h-1.957v3.4H1355.8v1.974h1.775v4.175c0,2.663,1.848,3.571,4.02,3.246v-1.705c-1.066,0-2.063-.093-2.063-1.568" transform="translate(-1292.448 -149.296)" fill="#fff"/>
      <path id="Path_13" data-name="Path 13" d="M1376.4,268.824c1.8.01,3.652,1.068,3.652,3.212v3.249c0,2.176-1.849,3.2-3.652,3.22-1.821-.02-3.669-1.043-3.669-3.22v-3.249c0-2.144,1.848-3.2,3.669-3.212m-1.7,3.212v3.249a1.718,1.718,0,0,0,3.372,0v-3.249c0-.878-.892-1.3-1.676-1.3-.813,0-1.7.424-1.7,1.3" transform="translate(-1287.833 -148.611)" fill="#fff"/>
      <path id="Path_14" data-name="Path 14" d="M1385.792,268.2v-1.935c-2.153-.145-3.857,1.056-3.857,3.193v1.694h-1.78v1.981h1.78v5.9h1.973v-5.9h1.781v-1.981h-1.781v-1.694c0-.79.691-1.257,1.884-1.257" transform="translate(-1285.81 -149.312)" fill="#fff"/>
    </g>
  </g>
</svg>
